<!-- <?xml version="1.0" encoding="UTF-8"?> -->
<svg id="Layer_1" xmlns="http://www.w3.org/2000/svg" version="1.1" viewBox="0 0 1115 219">
  <!-- Generator: Adobe Illustrator 29.5.1, SVG Export Plug-In . SVG Version: 2.1.0 Build 141)  -->
  <defs>
    <style>
      .st0 {
        fill: #3a4a41;
      }
    </style>
  </defs>
  <g>
    <path class="st0"
      d="M33.4,45.6c0,5.3,1.3,9.9,3.9,13.6,2.6,3.7,6,7,10.1,9.8,4.1,2.8,8.5,5.5,13,8.2,4.7,2.7,9.2,5.5,13.5,8.5,4.3,3,7.9,6.5,10.7,10.6,2.9,4.1,4.3,9.2,4.3,15.3s-1.4,11.2-4.3,16.1c-2.9,4.9-7.1,8.8-12.8,11.7-5.7,2.9-12.9,4.4-21.5,4.4s-5.5-.2-8.3-.6c-2.7-.4-5.5-1-8.4-2s-5.9-2.2-9.2-3.9c-.6-.4-1-.9-1.2-1.4-.2-.6-.4-1.3-.5-2.2l-2.9-24.7c-.1-.6.2-1,.9-1,.7,0,1.1.2,1.2.7.5,3.8,1.5,7.6,3,11.4,1.5,3.8,3.6,7.3,6.2,10.5,2.6,3.2,5.8,5.7,9.7,7.7,3.9,2,8.4,2.9,13.6,2.9s7.7-.7,11.4-2.2c3.7-1.5,6.7-3.8,9-7.1,2.3-3.3,3.5-7.8,3.5-13.5s-1.4-11.4-4.1-15.5c-2.7-4.1-6.2-7.7-10.4-10.6-4.2-3-8.6-5.8-13.3-8.5-4.4-2.7-8.7-5.4-12.9-8.4-4.2-2.9-7.6-6.4-10.2-10.4-2.6-4-3.9-9-3.9-14.9s1.6-12.1,4.9-16.4c3.3-4.4,7.6-7.6,12.8-9.8,5.3-2.2,10.7-3.2,16.4-3.2s6.8.4,10.4,1c3.6.7,7.4,1.9,11.3,3.5,1,.4,1.7.9,2.2,1.4.4.6.7,1.2.7,1.8l1.7,20.2c0,.5-.4.8-1,.8s-1.1-.3-1.2-.8c-.3-2.8-.9-5.7-2-8.7-1.1-3-2.7-5.7-4.8-8.3-2.1-2.5-4.8-4.6-8-6.2-3.2-1.6-7.1-2.4-11.7-2.4s-9.8,1.1-13,3.4c-3.2,2.3-5.5,5.1-6.9,8.6-1.4,3.4-2.1,7-2.1,10.6Z" />
    <path class="st0"
      d="M125.2,142.8c-4.7,0-8.3-1.3-10.7-3.9s-3.7-5.6-3.7-9,.5-4.2,1.6-6.3c1.1-2,3-4,5.7-5.9,2.7-1.9,6.5-3.7,11.3-5.5l23.8-8.9.4,2.5-22.4,8.6c-2.7,1-4.7,2.1-6.1,3.3-1.4,1.2-2.3,2.5-2.9,3.8-.5,1.3-.8,2.7-.8,4.1,0,2.8.9,5.3,2.8,7.6,1.8,2.3,4.5,3.4,8.1,3.4s2.9-.2,4.4-.7c1.5-.4,3.4-1.3,5.5-2.6l12.7-7.4.4,2.3-14.3,8.9c-3.2,2-6,3.5-8.4,4.4-2.4.9-4.9,1.3-7.4,1.3ZM158.9,142.6c-.5.3-1,.4-1.5.4-1.5,0-2.9-1.3-4.2-4-1.3-2.7-1.9-6.5-1.9-11.6v-36.7c0-7.9-1.2-13.3-3.7-16.4-2.5-3-5.5-4.6-9.2-4.6s-5.8.7-7.9,2.2c-2.1,1.5-3.7,3.3-4.8,5.4-1.1,2.2-1.9,4.2-2.4,6.1-.3,1.3-.7,2.8-1.3,4.5-.6,1.7-2.2,2.6-4.8,2.6s-3.3-.6-4.3-1.7c-1-1.1-1.4-2.3-1.4-3.6,0-2.2,1.1-4.3,3.4-6.6,2.3-2.2,5.2-4.3,8.7-6.2,3.5-1.9,7.1-3.4,10.9-4.6s7.3-1.7,10.5-1.7c5.2,0,9,1.7,11.4,5,2.4,3.4,3.6,8,3.6,13.8v35.9c0,4.6.5,7.9,1.6,10,1.1,2.1,2.9,3.1,5.6,3.1s5.9-1,10.5-2.9c.6-.3,1.1,0,1.3.7.3.7,0,1.2-.6,1.4l-19.6,9.3Z" />
    <path class="st0"
      d="M187.8,141.4c-.4,0-.6-.4-.6-1.1s.2-1.1.6-1.1c5.2,0,8.6-.8,10.1-2.5,1.5-1.6,2.3-5.2,2.3-10.6v-38c0-4.3-.5-7.4-1.5-9.4-1-2-2.8-2.9-5.3-2.9s-2.8.3-4.6.8c-1.8.5-3.8,1.2-6.1,2.1-.5.1-.9-.1-1.2-.8-.3-.6-.2-1.1.3-1.3l21.1-9.9c.3-.1.6-.2,1-.2.9,0,2,1.3,3.3,3.9,1.3,2.6,2,6.4,2,11.3v44.5c0,3.7.4,6.5,1.3,8.4.9,1.9,2.7,3.2,5.4,3.8,2.7.6,6.8,1,12.3,1s.6.4.6,1.1-.2,1.1-.6,1.1c-3,0-6.6,0-10.6-.2-4.1-.1-8.3-.2-12.7-.2s-6.2,0-9.2.2c-3,.1-5.5.2-7.7.2ZM205.5,89.9l-.8-1.9c4.7-5.8,8.5-10.3,11.5-13.4,3-3.1,5.5-5.3,7.7-6.5,2.2-1.2,4.2-1.8,6.3-1.8s5.3.7,7.8,2.1c2.5,1.4,3.8,3.1,3.8,5.1s-.5,2.4-1.4,3.4c-1,1-2.3,1.5-4.1,1.5s-2.8-.4-3.9-1.3c-1.1-.9-2.3-1.7-3.5-2.6-1.3-.8-3-1.2-5.1-1.2s-2.4.4-3.7,1c-1.3.7-3.1,2.2-5.3,4.6-2.2,2.3-5.3,6-9.2,10.9Z" />
    <path class="st0"
      d="M270,142.8c-4.7,0-8.3-1.3-10.7-3.9s-3.7-5.6-3.7-9,.5-4.2,1.6-6.3c1.1-2,3-4,5.7-5.9,2.7-1.9,6.5-3.7,11.3-5.5l23.8-8.9.4,2.5-22.4,8.6c-2.7,1-4.7,2.1-6.1,3.3-1.4,1.2-2.3,2.5-2.9,3.8-.5,1.3-.8,2.7-.8,4.1,0,2.8.9,5.3,2.8,7.6,1.8,2.3,4.5,3.4,8.1,3.4s2.9-.2,4.4-.7c1.5-.4,3.4-1.3,5.5-2.6l12.7-7.4.4,2.3-14.3,8.9c-3.2,2-6,3.5-8.4,4.4-2.4.9-4.9,1.3-7.4,1.3ZM303.6,142.6c-.5.3-1,.4-1.5.4-1.5,0-2.9-1.3-4.2-4-1.3-2.7-1.9-6.5-1.9-11.6v-36.7c0-7.9-1.2-13.3-3.7-16.4-2.5-3-5.5-4.6-9.2-4.6s-5.8.7-7.9,2.2c-2.1,1.5-3.7,3.3-4.8,5.4-1.1,2.2-1.9,4.2-2.4,6.1-.3,1.3-.7,2.8-1.3,4.5-.6,1.7-2.2,2.6-4.8,2.6s-3.3-.6-4.3-1.7c-1-1.1-1.4-2.3-1.4-3.6,0-2.2,1.1-4.3,3.4-6.6,2.3-2.2,5.2-4.3,8.7-6.2,3.5-1.9,7.1-3.4,10.9-4.6s7.3-1.7,10.5-1.7c5.2,0,9,1.7,11.4,5,2.4,3.4,3.6,8,3.6,13.8v35.9c0,4.6.5,7.9,1.6,10,1.1,2.1,2.9,3.1,5.6,3.1s5.9-1,10.5-2.9c.6-.3,1.1,0,1.3.7.3.7,0,1.2-.6,1.4l-19.6,9.3Z" />
    <path class="st0"
      d="M328.9,141.4c-.4,0-.6-.4-.6-1.1s.2-1.1.6-1.1c5.2,0,8.6-.8,10.1-2.5,1.5-1.6,2.3-5.2,2.3-10.6V27.3c0-4.6-.4-7.9-1.3-10-.9-2.1-2.5-3.1-4.8-3.1s-5.1,1-9.1,2.9c-.5.3-.9,0-1.2-.7-.3-.7-.2-1.2.3-1.4l23.4-11.4h.4c.4,0,.7.1,1,.4.3.3.4.6.4,1v121.1c0,5.5.8,9,2.3,10.6,1.5,1.6,4.9,2.5,10.3,2.5s.4.4.4,1.1-.1,1.1-.4,1.1c-2.3,0-4.8,0-7.7-.2-2.9-.1-5.9-.2-9.2-.2s-6.2,0-9.2.2c-3,.1-5.5.2-7.7.2ZM380.1,141.4c-.4,0-.6-.4-.6-1.1s.2-1.1.6-1.1c5.2,0,8.6-.8,10.1-2.5,1.5-1.6,2.3-5.2,2.3-10.6v-31c0-15.1-6-22.6-17.9-22.6s-9.9,1.6-14.9,4.8c-5,3.2-9.4,7.6-13,13l-.8-2.3c6-7.9,11.7-13.5,17.1-16.8,5.4-3.4,11-5,16.7-5s12.2,1.9,16,5.6c3.8,3.7,5.7,9.5,5.7,17.4v36.9c0,5.5.8,9,2.3,10.6,1.5,1.6,4.9,2.5,10.3,2.5s.4.4.4,1.1-.1,1.1-.4,1.1c-2.3,0-4.8,0-7.7-.2-2.9-.1-5.9-.2-9.2-.2s-6.2,0-9.2.2c-3,.1-5.5.2-7.7.2Z" />
    <path class="st0"
      d="M495.5,20.5c5.7,0,10.6.3,14.7.8,4.1.5,8,1.4,11.5,2.6,3.5,1.2,7.3,2.8,11.2,4.8.8.5,1.2.9,1.4,1.2.2.3.3,1.3.5,2.9l2.3,21.7c0,.3-.4.5-1,.7-.7.2-1.1,0-1.2-.5-2.8-10.5-7.4-18.4-13.8-23.7-6.4-5.3-14.9-7.9-25.6-7.9s-21.1,2.3-29.5,7c-8.4,4.7-14.9,11.3-19.5,20-4.6,8.6-6.9,18.8-6.9,30.4s1.5,16,4.5,23.4c3,7.4,7.1,13.8,12.4,19.4,5.3,5.6,11.2,10,18,13.1,6.7,3.2,13.9,4.8,21.5,4.8,10.9,0,19.6-2.6,26.2-7.9,6.6-5.3,11.3-13,14.1-23.1.1-.4.5-.5,1.2-.4.7.1,1,.3,1,.6l-1.5,20.2c-.1,1.5-.3,2.5-.6,2.9-.3.4-.8.8-1.5,1.3-6.7,3.6-13,6-18.7,7.2-5.8,1.3-12.6,1.9-20.4,1.9-13.3,0-25.1-2.6-35.4-7.9-10.3-5.3-18.3-12.6-24.2-22.2-5.8-9.5-8.7-20.5-8.7-33.1s1.7-17.4,5-24.7c3.4-7.4,8.1-13.7,14.3-19,6.1-5.3,13.3-9.4,21.6-12.3,8.2-2.9,17.3-4.3,27.2-4.3Z" />
    <path class="st0"
      d="M592.5,143.9c-7.5,0-14-1.8-19.5-5.5-5.5-3.7-9.8-8.6-12.7-14.7-3-6.1-4.5-12.8-4.5-19.9s1.2-12.3,3.6-17.1c2.4-4.8,5.6-8.8,9.6-11.9,4-3.1,8.3-5.4,13-6.9,4.7-1.5,9.3-2.3,13.9-2.3,7.6,0,14.1,1.9,19.6,5.7,5.4,3.8,9.6,8.7,12.6,14.6,2.9,6,4.4,12.2,4.4,18.8s-1.8,15.1-5.5,20.9c-3.7,5.8-8.5,10.3-14.5,13.5-6,3.2-12.6,4.8-19.9,4.8ZM597.8,140.5c7.1,0,12.8-2.4,17.1-7.1,4.3-4.8,6.5-12.6,6.5-23.7s-1.3-14.6-4-20.7c-2.7-6.1-6.4-10.9-11.1-14.5-4.8-3.5-10.3-5.3-16.6-5.3s-12.9,2.5-16.9,7.5c-4.1,5-6.1,12.2-6.1,21.6s1.3,14.5,3.9,20.9c2.6,6.5,6.2,11.6,10.9,15.5,4.7,3.9,10.1,5.8,16.4,5.8Z" />
    <path class="st0"
      d="M648.2,141.4c-.4,0-.6-.4-.6-1.1s.2-1.1.6-1.1c5.2,0,8.6-.8,10.1-2.5,1.5-1.6,2.3-5.2,2.3-10.6v-38c0-4.3-.5-7.4-1.5-9.4-1-2-2.8-2.9-5.3-2.9s-2.8.3-4.6.8c-1.8.5-3.8,1.2-6.1,2.1-.5.1-.9-.1-1.2-.8-.3-.6-.2-1.1.3-1.3l21.1-9.9c.3-.1.6-.2,1-.2.9,0,2,1.3,3.3,3.9,1.3,2.6,2,6.4,2,11.3v44.5c0,5.5.7,9,2.2,10.6,1.5,1.6,4.8,2.5,10.2,2.5s.6.4.6,1.1-.2,1.1-.6,1.1c-2.2,0-4.7,0-7.6-.2-2.9-.1-6-.2-9.1-.2s-6.2,0-9.2.2c-3,.1-5.5.2-7.7.2ZM699.3,141.4c-.4,0-.6-.4-.6-1.1s.2-1.1.6-1.1c5.2,0,8.6-.8,10.1-2.5,1.5-1.6,2.3-5.2,2.3-10.6v-31.8c0-7.7-1.5-13.4-4.4-16.9-2.9-3.5-7.5-5.3-13.7-5.3s-9.7,1.6-14.7,4.8c-5,3.2-9.4,7.5-13,13.1l-.8-2.3c6-7.9,11.7-13.5,17.1-16.9,5.4-3.4,11-5.1,16.5-5.1s12.4,1.9,16.2,5.6c3.8,3.7,5.7,9.5,5.7,17.4v37.5c0,5.5.7,9,2.2,10.6,1.5,1.6,4.8,2.5,10.2,2.5s.6.4.6,1.1-.2,1.1-.6,1.1c-2.2,0-4.7,0-7.6-.2-2.9-.1-6-.2-9.1-.2s-6.2,0-9.2.2c-3,.1-5.5.2-7.7.2Z" />
    <path class="st0"
      d="M781.1,143.7c-8.6,0-15.6-1.9-21-5.6-5.4-3.7-9.4-8.5-11.9-14.3-2.5-5.8-3.8-11.6-3.8-17.6s1.2-12,3.6-16.9c2.4-4.9,5.6-9.1,9.6-12.6,4-3.4,8.4-6,13.2-7.8,4.8-1.8,9.6-2.7,14.3-2.7s7,.5,10.3,1.4c3.3,1,6,2.3,8.2,3.9,2.2,1.6,3.2,3.5,3.2,5.5s-.5,2.8-1.4,3.9c-1,1.1-2.3,1.6-4.1,1.6s-3.3-.6-4.6-1.7c-1.3-1.1-2.3-2.3-3-3.6-1.5-2.2-3.3-3.9-5.4-5.2s-5.2-2-9.2-2c-7.7,0-13.6,2.8-17.7,8.5-4.1,5.6-6.1,13-6.1,22.2s1.1,12.5,3.4,18.2c2.3,5.6,5.8,10.2,10.6,13.7,4.8,3.5,10.9,5.2,18.5,5.2s6.7-.5,10.2-1.4c3.5-1,6.6-2.7,9.4-5.2.4-.3.8-.1,1.2.4.4.5.5.9,0,1.1-4.3,3.9-8.7,6.8-13.1,8.5-4.4,1.7-9.3,2.6-14.5,2.6Z" />
    <path class="st0"
      d="M819.9,141.4c-.4,0-.6-.4-.6-1.1s.2-1.1.6-1.1c5.2,0,8.6-.8,10.1-2.5,1.5-1.6,2.3-5.2,2.3-10.6V27.3c0-4.6-.4-7.9-1.3-10-.9-2.1-2.5-3.1-4.8-3.1s-5.1,1-9.1,2.9c-.5.3-.9,0-1.2-.7-.3-.7-.2-1.2.3-1.4l23.4-11.4h.4c.4,0,.7.1,1,.4.3.3.4.6.4,1v121.1c0,5.5.8,9,2.3,10.6,1.5,1.6,4.9,2.5,10.3,2.5s.4.4.4,1.1-.1,1.1-.4,1.1c-2.3,0-4.8,0-7.7-.2-2.9-.1-5.9-.2-9.2-.2s-6.2,0-9.2.2c-3,.1-5.5.2-7.7.2ZM871.1,141.4c-.4,0-.6-.4-.6-1.1s.2-1.1.6-1.1c5.2,0,8.6-.8,10.1-2.5,1.5-1.6,2.3-5.2,2.3-10.6v-31c0-15.1-6-22.6-17.9-22.6s-9.9,1.6-14.9,4.8c-5,3.2-9.4,7.6-13,13l-.8-2.3c6-7.9,11.7-13.5,17.1-16.8,5.5-3.4,11-5,16.7-5s12.2,1.9,16,5.6c3.8,3.7,5.7,9.5,5.7,17.4v36.9c0,5.5.8,9,2.3,10.6,1.5,1.6,4.9,2.5,10.3,2.5s.4.4.4,1.1-.1,1.1-.4,1.1c-2.3,0-4.8,0-7.7-.2-2.9-.1-5.9-.2-9.2-.2s-6.2,0-9.2.2c-3,.1-5.5.2-7.7.2Z" />
    <path class="st0"
      d="M952.8,143.9c-7.5,0-14-1.8-19.5-5.5-5.5-3.7-9.8-8.6-12.7-14.7-3-6.1-4.5-12.8-4.5-19.9s1.2-12.3,3.6-17.1c2.4-4.8,5.6-8.8,9.6-11.9,4-3.1,8.3-5.4,13-6.9,4.7-1.5,9.3-2.3,13.9-2.3,7.6,0,14.1,1.9,19.6,5.7,5.4,3.8,9.6,8.7,12.6,14.6,2.9,6,4.4,12.2,4.4,18.8s-1.8,15.1-5.5,20.9c-3.7,5.8-8.5,10.3-14.5,13.5-6,3.2-12.6,4.8-19.9,4.8ZM958.2,140.5c7.1,0,12.8-2.4,17.1-7.1,4.3-4.8,6.5-12.6,6.5-23.7s-1.3-14.6-4-20.7c-2.7-6.1-6.4-10.9-11.1-14.5-4.8-3.5-10.3-5.3-16.6-5.3s-12.9,2.5-16.9,7.5c-4.1,5-6.1,12.2-6.1,21.6s1.3,14.5,3.9,20.9c2.6,6.5,6.2,11.6,10.9,15.5,4.7,3.9,10.1,5.8,16.4,5.8Z" />
    <path class="st0"
      d="M1008.6,141.4c-.4,0-.6-.4-.6-1.1s.2-1.1.6-1.1c5.2,0,8.6-.8,10.1-2.5,1.5-1.6,2.3-5.2,2.3-10.6v-38c0-4.3-.5-7.4-1.5-9.4-1-2-2.8-2.9-5.3-2.9s-2.8.3-4.6.8c-1.8.5-3.8,1.2-6.1,2.1-.5.1-.9-.1-1.2-.8-.3-.6-.2-1.1.3-1.3l21.1-9.9c.3-.1.6-.2,1-.2.9,0,2,1.3,3.3,3.9,1.3,2.6,2,6.4,2,11.3v44.5c0,5.5.7,9,2.2,10.6,1.5,1.6,4.8,2.5,10.2,2.5s.6.4.6,1.1-.2,1.1-.6,1.1c-2.2,0-4.7,0-7.6-.2-2.9-.1-6-.2-9.1-.2s-6.2,0-9.2.2c-3,.1-5.5.2-7.7.2ZM1059.7,141.4c-.4,0-.6-.4-.6-1.1s.2-1.1.6-1.1c5.2,0,8.6-.8,10.1-2.5,1.5-1.6,2.3-5.2,2.3-10.6v-31.8c0-7.7-1.5-13.4-4.4-16.9-2.9-3.5-7.5-5.3-13.7-5.3s-9.7,1.6-14.7,4.8c-5,3.2-9.4,7.5-13,13.1l-.8-2.3c6-7.9,11.7-13.5,17.1-16.9,5.4-3.4,11-5.1,16.5-5.1s12.4,1.9,16.2,5.6c3.8,3.7,5.7,9.5,5.7,17.4v37.5c0,5.5.7,9,2.2,10.6,1.5,1.6,4.8,2.5,10.2,2.5s.6.4.6,1.1-.2,1.1-.6,1.1c-2.2,0-4.7,0-7.6-.2-2.9-.1-6-.2-9.1-.2s-6.2,0-9.2.2c-3,.1-5.5.2-7.7.2Z" />
  </g>
  <g>
    <path class="st0" d="M40.1,210.9h-20.7v-33.1h20.7v3.4h-16.9v11h16.1v3.3h-16.1v12.2h16.9v3.4Z" />
    <path class="st0" d="M86.6,210.9h-4.3l-18.6-27.8h-.2v27.8h-3.5v-33.1h4.3l18.6,27.8h.2v-27.8h3.5v33.1Z" />
    <path class="st0"
      d="M108.6,210.9v-33.1h9.9c3.3,0,6.2.7,8.6,2,2.4,1.3,4.3,3.2,5.7,5.7,1.3,2.5,2,5.4,2,8.8s-.7,6.3-2,8.8c-1.3,2.5-3.2,4.4-5.7,5.7-2.4,1.3-5.3,2-8.6,2h-9.9ZM112.4,207.5h6.2c2.7,0,5-.6,6.8-1.7,1.9-1.1,3.3-2.6,4.2-4.6,1-2,1.4-4.3,1.4-6.9,0-4-1.1-7.2-3.2-9.6s-5.2-3.6-9.3-3.6h-6.2v26.4Z" />
    <path class="st0"
      d="M167.6,211.3c-2.9,0-5.5-.7-7.7-2.1-2.3-1.4-4.1-3.4-5.4-5.9-1.3-2.5-2-5.6-2-9s.7-6.5,2-9.1c1.3-2.5,3.1-4.5,5.4-5.9,2.3-1.4,4.9-2.1,7.7-2.1s5.5.7,7.8,2.1c2.3,1.4,4.1,3.3,5.4,5.9,1.3,2.5,1.9,5.6,1.9,9.1s-.7,6.5-2,9c-1.3,2.6-3.1,4.5-5.4,5.9-2.3,1.4-4.9,2.1-7.8,2.1ZM167.6,207.9c2.3,0,4.3-.6,6-1.7,1.7-1.1,3-2.7,3.9-4.8.9-2,1.4-4.4,1.4-7.2s-.5-5.1-1.4-7.2c-.9-2-2.2-3.6-3.9-4.7-1.7-1.1-3.7-1.7-6-1.7s-4.3.6-5.9,1.7c-1.7,1.1-3,2.7-3.9,4.7s-1.4,4.4-1.4,7.2.5,5.1,1.4,7.2c.9,2,2.2,3.6,3.9,4.8,1.7,1.1,3.7,1.7,5.9,1.7Z" />
    <path class="st0"
      d="M215.9,211.3c-3,0-5.6-.7-7.8-2.1-2.3-1.4-4-3.4-5.3-6-1.3-2.6-1.9-5.5-1.9-8.9s.6-6.3,1.9-8.9c1.3-2.6,3-4.6,5.3-6,2.3-1.4,4.9-2.1,7.8-2.1s4.3.4,6.2,1.2c1.8.8,3.3,2,4.5,3.6,1.2,1.5,1.9,3.4,2.3,5.5h-3.9c-.4-2.1-1.3-3.8-2.9-5-1.6-1.2-3.6-1.9-6.1-1.9s-4.2.6-5.9,1.7c-1.7,1.1-3,2.7-3.9,4.7-.9,2-1.4,4.4-1.4,7.2s.5,5.1,1.4,7.2c.9,2,2.2,3.6,3.9,4.8,1.7,1.1,3.7,1.7,5.9,1.7s4.5-.6,6.1-1.9c1.6-1.3,2.6-2.9,2.9-5h3.9c-.4,2.1-1.1,3.9-2.3,5.5-1.2,1.6-2.7,2.7-4.5,3.6-1.8.8-3.9,1.2-6.2,1.2Z" />
    <path class="st0"
      d="M247.8,210.9v-33.1h13.7c2,0,3.7.4,5.2,1.1,1.5.7,2.7,1.7,3.5,3.1.8,1.3,1.3,3,1.3,4.9s-.3,2.7-.9,3.9c-.6,1.2-1.5,2.2-2.8,3v.2c1.2,0,2.1.3,2.7,1,.6.6,1,1.5,1,2.7v13.3h-3.8v-13.9h-16.2v13.9h-3.8ZM251.6,193.8h9.5c2,0,3.6-.6,4.8-1.7s1.8-2.7,1.8-4.7-.6-3.6-1.8-4.7-2.8-1.7-4.8-1.7h-9.5v12.8Z" />
    <path class="st0" d="M292.9,210.9v-33.1h3.8v33.1h-3.8Z" />
    <path class="st0" d="M345.3,210.9h-4.3l-18.6-27.8h-.2v27.8h-3.5v-33.1h4.3l18.6,27.8h.2v-27.8h3.5v33.1Z" />
    <path class="st0"
      d="M380.5,211.3c-2.9,0-5.5-.7-7.7-2.1-2.3-1.4-4.1-3.4-5.4-5.9-1.3-2.5-2-5.6-2-9s.7-6.5,2-9.1c1.3-2.5,3.1-4.5,5.4-5.9,2.3-1.4,4.9-2.1,7.7-2.1s5.5.7,7.8,2.1c2.3,1.4,4.1,3.3,5.4,5.9,1.3,2.5,1.9,5.6,1.9,9.1s-.7,6.5-2,9c-1.3,2.6-3.1,4.5-5.4,5.9-2.3,1.4-4.9,2.1-7.8,2.1ZM380.5,207.9c2.3,0,4.3-.6,6-1.7,1.7-1.1,3-2.7,3.9-4.8.9-2,1.4-4.4,1.4-7.2s-.5-5.1-1.4-7.2c-.9-2-2.2-3.6-3.9-4.7-1.7-1.1-3.7-1.7-6-1.7s-4.3.6-5.9,1.7c-1.7,1.1-3,2.7-3.9,4.7s-1.4,4.4-1.4,7.2.5,5.1,1.4,7.2c.9,2,2.2,3.6,3.9,4.8,1.7,1.1,3.7,1.7,5.9,1.7Z" />
    <path class="st0" d="M415.7,210.9v-33.1h3.8v29.8h16.5v3.4h-20.3Z" />
    <path class="st0"
      d="M466.1,211.3c-2.9,0-5.5-.7-7.7-2.1-2.3-1.4-4.1-3.4-5.4-5.9-1.3-2.5-2-5.6-2-9s.7-6.5,2-9.1c1.3-2.5,3.1-4.5,5.4-5.9,2.3-1.4,4.9-2.1,7.7-2.1s5.5.7,7.8,2.1c2.3,1.4,4.1,3.3,5.4,5.9,1.3,2.5,1.9,5.6,1.9,9.1s-.7,6.5-2,9c-1.3,2.6-3.1,4.5-5.4,5.9-2.3,1.4-4.9,2.1-7.8,2.1ZM466.1,207.9c2.3,0,4.3-.6,6-1.7,1.7-1.1,3-2.7,3.9-4.8.9-2,1.4-4.4,1.4-7.2s-.5-5.1-1.4-7.2c-.9-2-2.2-3.6-3.9-4.7-1.7-1.1-3.7-1.7-6-1.7s-4.3.6-5.9,1.7c-1.7,1.1-3,2.7-3.9,4.7s-1.4,4.4-1.4,7.2.5,5.1,1.4,7.2c.9,2,2.2,3.6,3.9,4.8,1.7,1.1,3.7,1.7,5.9,1.7Z" />
    <path class="st0"
      d="M514,211.3c-2.9,0-5.4-.7-7.6-2.2-2.2-1.4-3.9-3.5-5.2-6-1.3-2.6-1.9-5.5-1.9-8.8s.7-6.3,2-8.9c1.3-2.6,3.1-4.6,5.5-6,2.3-1.4,5-2.1,7.9-2.1s4.3.4,6.1,1.2c1.8.8,3.3,2,4.4,3.6,1.2,1.5,1.9,3.4,2.3,5.5h-3.9c-.4-2.1-1.3-3.8-2.9-5-1.6-1.2-3.6-1.9-6-1.9s-4.3.6-6,1.7c-1.7,1.1-3.1,2.7-4,4.8-1,2-1.5,4.4-1.5,7.2s.5,5,1.4,7.1c1,2.1,2.3,3.7,4,4.9s3.6,1.8,5.8,1.8,3.4-.4,4.9-1.1c1.4-.7,2.5-1.7,3.4-2.9.8-1.2,1.2-2.6,1.2-4.1v-2.4h-10v-3.3h10c1.2,0,2.1.3,2.7,1,.6.6,1,1.5,1,2.7v12.8h-3.6v-5.1h-.2c-.6,1.6-1.8,2.9-3.5,4-1.7,1.1-3.8,1.6-6.3,1.6Z" />
    <path class="st0" d="M548.4,210.9v-33.1h3.8v33.1h-3.8Z" />
    <path class="st0"
      d="M584.7,211.3c-2.5,0-4.7-.4-6.6-1.3-1.9-.9-3.4-2.1-4.5-3.6-1.1-1.5-1.7-3.3-1.8-5.4h4c.2,2.2,1.2,3.9,2.8,5.1,1.6,1.2,3.7,1.8,6.3,1.8s4.4-.5,5.8-1.6,2-2.5,2-4.4-.5-2.8-1.5-3.8c-1-1-2.5-1.7-4.5-2.1l-5.1-1.1c-2.7-.6-4.7-1.6-6.2-3-1.4-1.4-2.2-3.3-2.2-5.5s.4-3.3,1.3-4.7c.9-1.4,2.1-2.5,3.8-3.2,1.6-.8,3.6-1.2,5.8-1.2s4.3.4,6,1.2c1.7.8,3.1,2,4.1,3.4,1,1.5,1.7,3.2,1.9,5.1h-4c-.4-2.1-1.2-3.7-2.7-4.8-1.4-1.1-3.3-1.6-5.5-1.6s-3.8.5-5.1,1.5c-1.3,1-1.9,2.3-1.9,4s.5,2.5,1.4,3.4c.9.9,2.4,1.6,4.5,2.1l5.3,1.2c2.8.6,4.8,1.6,6.2,3.1,1.4,1.5,2.1,3.4,2.1,5.7s-1,5.3-3.1,7c-2,1.8-4.9,2.7-8.5,2.7Z" />
    <path class="st0" d="M626.5,210.9h-3.8v-29.8h-11.2v-3.4h26.2v3.4h-11.2v29.8Z" />
    <path class="st0"
      d="M646.8,210.9l12.9-33.1h4.4l12.8,33.1h-3.9l-3.9-10.5h-14.6l-3.9,10.5h-3.8ZM655.8,197h12.1l-5.9-15.8h-.2l-6,15.8Z" />
    <path class="st0"
      d="M719.6,210.9v-33.1h12.8c3.3,0,5.9.9,7.8,2.7,1.9,1.8,2.9,4.2,2.9,7.4s-1,5.5-2.9,7.3c-1.9,1.8-4.5,2.7-7.8,2.7h-9v13h-3.8ZM723.4,194.6h8.9c2.2,0,3.9-.6,5.2-1.8,1.3-1.2,1.9-2.9,1.9-4.9s-.6-3.8-1.9-5-3-1.8-5.2-1.8h-8.9v13.6Z" />
    <path class="st0" d="M782.9,210.9h-20.7v-33.1h20.7v3.4h-16.9v11h16.1v3.3h-16.1v12.2h16.9v3.4Z" />
    <path class="st0"
      d="M802.7,210.9v-33.1h9.9c3.3,0,6.2.7,8.6,2,2.4,1.3,4.3,3.2,5.7,5.7,1.3,2.5,2,5.4,2,8.8s-.7,6.3-2,8.8-3.2,4.4-5.7,5.7c-2.4,1.3-5.3,2-8.6,2h-9.9ZM806.5,207.5h6.2c2.7,0,5-.6,6.8-1.7,1.9-1.1,3.3-2.6,4.2-4.6,1-2,1.4-4.3,1.4-6.9,0-4-1.1-7.2-3.2-9.6-2.1-2.4-5.2-3.6-9.3-3.6h-6.2v26.4Z" />
    <path class="st0" d="M848.6,210.9v-33.1h3.8v33.1h-3.8Z" />
    <path class="st0"
      d="M870,210.9l12.9-33.1h4.4l12.8,33.1h-3.9l-3.9-10.5h-14.6l-3.9,10.5h-3.8ZM879,197h12.1l-5.9-15.8h-.2l-6,15.8ZM882.5,174.5v-.2l4.4-7.2h4.7v.2l-6.4,7.2h-2.7Z" />
    <path class="st0" d="M924.2,210.9h-3.8v-29.8h-11.2v-3.4h26.2v3.4h-11.2v29.8Z" />
    <path class="st0"
      d="M953.9,210.9v-33.1h13.7c2,0,3.7.4,5.2,1.1,1.5.7,2.7,1.7,3.5,3.1.8,1.3,1.3,3,1.3,4.9s-.3,2.7-.9,3.9c-.6,1.2-1.5,2.2-2.8,3v.2c1.2,0,2.1.3,2.7,1s1,1.5,1,2.7v13.3h-3.8v-13.9h-16.2v13.9h-3.8ZM957.6,193.8h9.5c2,0,3.6-.6,4.8-1.7,1.2-1.1,1.8-2.7,1.8-4.7s-.6-3.6-1.8-4.7c-1.2-1.1-2.8-1.7-4.8-1.7h-9.5v12.8Z" />
    <path class="st0" d="M998.9,210.9v-33.1h3.8v33.1h-3.8Z" />
    <path class="st0"
      d="M1037.8,211.3c-3,0-5.6-.7-7.8-2.1s-4-3.4-5.3-6c-1.3-2.6-1.9-5.5-1.9-8.9s.6-6.3,1.9-8.9c1.3-2.6,3-4.6,5.3-6,2.3-1.4,4.9-2.1,7.8-2.1s4.3.4,6.2,1.2c1.8.8,3.3,2,4.5,3.6,1.2,1.5,1.9,3.4,2.3,5.5h-3.9c-.4-2.1-1.3-3.8-2.9-5-1.6-1.2-3.6-1.9-6.1-1.9s-4.2.6-5.9,1.7c-1.7,1.1-3,2.7-3.9,4.7-.9,2-1.4,4.4-1.4,7.2s.5,5.1,1.4,7.2c.9,2,2.2,3.6,3.9,4.8,1.7,1.1,3.7,1.7,5.9,1.7s4.5-.6,6.1-1.9,2.6-2.9,2.9-5h3.9c-.4,2.1-1.1,3.9-2.3,5.5-1.2,1.6-2.7,2.7-4.5,3.6-1.8.8-3.9,1.2-6.2,1.2Z" />
    <path class="st0"
      d="M1064.5,210.9l12.9-33.1h4.4l12.8,33.1h-3.9l-3.9-10.5h-14.6l-3.9,10.5h-3.8ZM1073.6,197h12.1l-5.9-15.8h-.2l-6,15.8Z" />
  </g>
</svg>