<?xml version="1.0" encoding="UTF-8"?>
<svg xmlns="http://www.w3.org/2000/svg" xmlns:xlink="http://www.w3.org/1999/xlink" version="1.1" viewBox="0 0 115.6 27.3">
  <!-- Generator: Adobe Illustrator 29.5.1, SVG Export Plug-In . SVG Version: 2.1.0 Build 141)  -->
  <defs>
    <style>
      .st0 {
        fill: url(#radial-gradient);
      }

      .st1 {
        isolation: isolate;
      }

      .st2 {
        fill: url(#radial-gradient5);
      }

      .st2, .st3, .st4, .st5, .st6 {
        mix-blend-mode: multiply;
        opacity: .5;
      }

      .st3 {
        fill: url(#radial-gradient3);
      }

      .st4 {
        fill: url(#radial-gradient9);
      }

      .st5 {
        fill: url(#radial-gradient7);
      }

      .st6 {
        fill: url(#radial-gradient1);
      }

      .st7 {
        fill: url(#radial-gradient6);
      }

      .st8 {
        fill: url(#radial-gradient8);
      }

      .st9 {
        fill: url(#radial-gradient2);
      }

      .st10 {
        fill: url(#radial-gradient4);
      }
    </style>
    <radialGradient id="radial-gradient" cx="6.5" cy="21.2" fx="6.5" fy="21.2" r="18.4" gradientUnits="userSpaceOnUse">
      <stop offset=".4" stop-color="#ffc200"/>
      <stop offset=".5" stop-color="#ffbc06"/>
      <stop offset=".7" stop-color="#ffae18"/>
      <stop offset="1" stop-color="#ff9736"/>
      <stop offset="1" stop-color="#ff953a"/>
    </radialGradient>
    <radialGradient id="radial-gradient1" cx="5.1" cy="25.7" fx="5.1" fy="25.7" r="26.6" xlink:href="#radial-gradient"/>
    <radialGradient id="radial-gradient2" cx="29.5" fx="29.5" r="18.4" xlink:href="#radial-gradient"/>
    <radialGradient id="radial-gradient3" cx="28.1" cy="25.7" fx="28.1" fy="25.7" r="26.6" xlink:href="#radial-gradient"/>
    <radialGradient id="radial-gradient4" cx="52.4" fx="52.4" r="18.4" xlink:href="#radial-gradient"/>
    <radialGradient id="radial-gradient5" cx="51" cy="25.7" fx="51" fy="25.7" r="26.6" xlink:href="#radial-gradient"/>
    <radialGradient id="radial-gradient6" cx="75.3" fx="75.3" r="18.4" xlink:href="#radial-gradient"/>
    <radialGradient id="radial-gradient7" cx="73.9" cy="25.7" fx="73.9" fy="25.7" r="26.6" xlink:href="#radial-gradient"/>
    <radialGradient id="radial-gradient8" cx="98.3" fx="98.3" r="18.4" xlink:href="#radial-gradient"/>
    <radialGradient id="radial-gradient9" cx="96.9" cy="25.7" fx="96.9" fy="25.7" r="26.6" xlink:href="#radial-gradient"/>
  </defs>
  <g class="st1">
    <g id="Modo_de_isolamento">
      <g>
        <path class="st0" d="M17.8,20.3c0,.5-.3.8-.7.5l-4-2c-.5-.2-1.3-.2-1.7,0l-4,2c-.5.2-.8,0-.7-.5l.7-4.4c0-.5-.2-1.3-.5-1.7l-3.1-3.2c-.4-.4-.2-.8.3-.9l4.4-.7c.5,0,1.2-.5,1.4-1l2.1-3.9c.2-.5.7-.5.9,0l2,3.9c.2.5.9.9,1.4,1l4.4.8c.5,0,.6.5.3.9l-3.1,3.2c-.4.4-.6,1.1-.5,1.7l.6,4.4Z"/>
        <path class="st6" d="M12.3,4.4c0,0,.2,0,.3.2l2,3.9c.3.5,1,1,1.6,1.1l4.4.8c.2,0,.3,0,.3.2,0,0,0,.2-.1.3l-3.1,3.2c-.4.4-.7,1.2-.6,1.8l.6,4.4c0,.1,0,.3,0,.3,0,0,0,0-.1,0s-.2,0-.2,0l-4-2c-.3-.1-.6-.2-1-.2s-.7,0-1,.2l-4,2c0,0-.2,0-.2,0s-.1,0-.1,0c0,0,0-.2,0-.3l.7-4.4c0-.6-.2-1.4-.6-1.8l-3.1-3.2c-.1-.1-.2-.2-.1-.3,0,0,.1-.1.3-.2l4.4-.7c.6,0,1.3-.6,1.6-1.1l2.1-3.9c0-.1.2-.2.3-.2M12.3,4.2c-.2,0-.3.1-.4.4l-2.1,3.9c-.2.5-.9.9-1.4,1l-4.4.7c-.5,0-.7.5-.3.9l3.1,3.2c.4.4.6,1.1.5,1.7l-.7,4.4c0,.4.1.6.4.6s.2,0,.3,0l4-2c.2-.1.5-.2.9-.2s.6,0,.9.2l4,2c.1,0,.2,0,.3,0,.3,0,.4-.2.4-.6l-.6-4.4c0-.5.2-1.3.5-1.7l3.1-3.2c.4-.4.3-.8-.3-.9l-4.4-.8c-.5,0-1.2-.6-1.4-1l-2-3.9c-.1-.2-.3-.4-.4-.4h0Z"/>
      </g>
      <g>
        <path class="st9" d="M40.8,20.3c0,.5-.3.8-.7.5l-4-2c-.5-.2-1.3-.2-1.7,0l-4,2c-.5.2-.8,0-.7-.5l.7-4.4c0-.5-.2-1.3-.5-1.7l-3.1-3.2c-.4-.4-.2-.8.3-.9l4.4-.7c.5,0,1.2-.5,1.4-1l2.1-3.9c.2-.5.7-.5.9,0l2,3.9c.2.5.9.9,1.4,1l4.4.8c.5,0,.6.5.3.9l-3.1,3.2c-.4.4-.6,1.1-.5,1.7l.6,4.4Z"/>
        <path class="st3" d="M35.3,4.4c0,0,.2,0,.3.2l2,3.9c.3.5,1,1,1.6,1.1l4.4.8c.2,0,.3,0,.3.2,0,0,0,.2-.1.3l-3.1,3.2c-.4.4-.7,1.2-.6,1.8l.6,4.4c0,.1,0,.3,0,.3,0,0,0,0-.1,0s-.2,0-.2,0l-4-2c-.3-.1-.6-.2-1-.2s-.7,0-1,.2l-4,2c0,0-.2,0-.2,0s-.1,0-.1,0c0,0,0-.2,0-.3l.7-4.4c0-.6-.2-1.4-.6-1.8l-3.1-3.2c-.1-.1-.2-.2-.1-.3,0,0,.1-.1.3-.2l4.4-.7c.6,0,1.3-.6,1.6-1.1l2.1-3.9c0-.1.2-.2.3-.2M35.3,4.2c-.2,0-.3.1-.4.4l-2.1,3.9c-.2.5-.9.9-1.4,1l-4.4.7c-.5,0-.7.5-.3.9l3.1,3.2c.4.4.6,1.1.5,1.7l-.7,4.4c0,.4.1.6.4.6s.2,0,.3,0l4-2c.2-.1.5-.2.9-.2s.6,0,.9.2l4,2c.1,0,.2,0,.3,0,.3,0,.4-.2.4-.6l-.6-4.4c0-.5.2-1.3.5-1.7l3.1-3.2c.4-.4.3-.8-.3-.9l-4.4-.8c-.5,0-1.2-.6-1.4-1l-2-3.9c-.1-.2-.3-.4-.4-.4h0Z"/>
      </g>
      <g>
        <path class="st10" d="M63.7,20.3c0,.5-.3.8-.7.5l-4-2c-.5-.2-1.3-.2-1.7,0l-4,2c-.5.2-.8,0-.7-.5l.7-4.4c0-.5-.2-1.3-.5-1.7l-3.1-3.2c-.4-.4-.2-.8.3-.9l4.4-.7c.5,0,1.2-.5,1.4-1l2.1-3.9c.2-.5.7-.5.9,0l2,3.9c.2.5.9.9,1.4,1l4.4.8c.5,0,.6.5.3.9l-3.1,3.2c-.4.4-.6,1.1-.5,1.7l.6,4.4Z"/>
        <path class="st2" d="M58.2,4.4c0,0,.2,0,.3.2l2,3.9c.3.5,1,1,1.6,1.1l4.4.8c.2,0,.3,0,.3.2,0,0,0,.2-.1.3l-3.1,3.2c-.4.4-.7,1.2-.6,1.8l.6,4.4c0,.1,0,.3,0,.3,0,0,0,0-.1,0s-.2,0-.2,0l-4-2c-.3-.1-.6-.2-1-.2s-.7,0-1,.2l-4,2c0,0-.2,0-.2,0s-.1,0-.1,0c0,0,0-.2,0-.3l.7-4.4c0-.6-.2-1.4-.6-1.8l-3.1-3.2c-.1-.1-.2-.2-.1-.3,0,0,.1-.1.3-.2l4.4-.7c.6,0,1.3-.6,1.6-1.1l2.1-3.9c0-.1.2-.2.3-.2M58.2,4.2c-.2,0-.3.1-.4.4l-2.1,3.9c-.2.5-.9.9-1.4,1l-4.4.7c-.5,0-.7.5-.3.9l3.1,3.2c.4.4.6,1.1.5,1.7l-.7,4.4c0,.4.1.6.4.6s.2,0,.3,0l4-2c.2-.1.5-.2.9-.2s.6,0,.9.2l4,2c.1,0,.2,0,.3,0,.3,0,.4-.2.4-.6l-.6-4.4c0-.5.2-1.3.5-1.7l3.1-3.2c.4-.4.3-.8-.3-.9l-4.4-.8c-.5,0-1.2-.6-1.4-1l-2-3.9c-.1-.2-.3-.4-.4-.4h0Z"/>
      </g>
      <g>
        <path class="st7" d="M86.7,20.3c0,.5-.3.8-.7.5l-4-2c-.5-.2-1.3-.2-1.7,0l-4,2c-.5.2-.8,0-.7-.5l.7-4.4c0-.5-.2-1.3-.5-1.7l-3.1-3.2c-.4-.4-.2-.8.3-.9l4.4-.7c.5,0,1.2-.5,1.4-1l2.1-3.9c.2-.5.7-.5.9,0l2,3.9c.2.5.9.9,1.4,1l4.4.8c.5,0,.6.5.3.9l-3.1,3.2c-.4.4-.6,1.1-.5,1.7l.6,4.4Z"/>
        <path class="st5" d="M81.2,4.4c0,0,.2,0,.3.2l2,3.9c.3.5,1,1,1.6,1.1l4.4.8c.2,0,.3,0,.3.2,0,0,0,.2-.1.3l-3.1,3.2c-.4.4-.7,1.2-.6,1.8l.6,4.4c0,.1,0,.3,0,.3,0,0,0,0-.1,0s-.2,0-.2,0l-4-2c-.3-.1-.6-.2-1-.2s-.7,0-1,.2l-4,2c0,0-.2,0-.2,0s-.1,0-.1,0c0,0,0-.2,0-.3l.7-4.4c0-.6-.2-1.4-.6-1.8l-3.1-3.2c-.1-.1-.2-.2-.1-.3,0,0,.1-.1.3-.2l4.4-.7c.6,0,1.3-.6,1.6-1.1l2.1-3.9c0-.1.2-.2.3-.2M81.2,4.2c-.2,0-.3.1-.4.4l-2.1,3.9c-.2.5-.9.9-1.4,1l-4.4.7c-.5,0-.7.5-.3.9l3.1,3.2c.4.4.6,1.1.5,1.7l-.7,4.4c0,.4.1.6.4.6s.2,0,.3,0l4-2c.2-.1.5-.2.9-.2s.6,0,.9.2l4,2c.1,0,.2,0,.3,0,.3,0,.4-.2.4-.6l-.6-4.4c0-.5.2-1.3.5-1.7l3.1-3.2c.4-.4.3-.8-.3-.9l-4.4-.8c-.5,0-1.2-.6-1.4-1l-2-3.9c-.1-.2-.3-.4-.4-.4h0Z"/>
      </g>
      <g>
        <path class="st8" d="M109.6,20.3c0,.5-.3.8-.7.5l-4-2c-.5-.2-1.3-.2-1.7,0l-4,2c-.5.2-.8,0-.7-.5l.7-4.4c0-.5-.2-1.3-.5-1.7l-3.1-3.2c-.4-.4-.2-.8.3-.9l4.4-.7c.5,0,1.2-.5,1.4-1l2.1-3.9c.2-.5.7-.5.9,0l2,3.9c.2.5.9.9,1.4,1l4.4.8c.5,0,.7.5.3.9l-3.1,3.2c-.4.4-.6,1.1-.5,1.7l.6,4.4Z"/>
        <path class="st4" d="M104.1,4.4c0,0,.2,0,.3.2l2,3.9c.3.5,1,1,1.6,1.1l4.4.8c.2,0,.3,0,.3.2s0,.2-.1.3l-3.1,3.2c-.4.4-.7,1.2-.6,1.8l.6,4.4c0,.1,0,.3,0,.3,0,0,0,0-.1,0s-.2,0-.2,0l-4-2c-.3-.1-.6-.2-1-.2s-.7,0-1,.2l-4,2c0,0-.2,0-.2,0s-.1,0-.1,0c0,0,0-.2,0-.3l.7-4.4c0-.6-.2-1.4-.6-1.8l-3.1-3.2c-.1-.1-.2-.2-.1-.3,0,0,.1-.1.3-.2l4.4-.7c.6,0,1.3-.6,1.6-1.1l2.1-3.9c0-.1.2-.2.3-.2M104.1,4.2c-.2,0-.3.1-.4.4l-2.1,3.9c-.2.5-.9.9-1.4,1l-4.4.7c-.5,0-.7.5-.3.9l3.1,3.2c.4.4.6,1.1.5,1.7l-.7,4.4c0,.4.1.6.4.6s.2,0,.3,0l4-2c.2-.1.5-.2.9-.2s.6,0,.9.2l4,2c.1,0,.2,0,.3,0,.3,0,.4-.2.4-.6l-.6-4.4c0-.5.2-1.3.5-1.7l3.1-3.2c.4-.4.3-.8-.3-.9l-4.4-.8c-.5,0-1.2-.6-1.4-1l-2-3.9c-.1-.2-.3-.4-.4-.4h0Z"/>
      </g>
    </g>
  </g>
</svg>